<svg xmlns="http://www.w3.org/2000/svg" style="display:none" aria-hidden="true">
  <symbol id="icon-home" viewBox="0 0 24 24" fill="none" stroke="currentColor" stroke-width="1.6" stroke-linecap="round" stroke-linejoin="round">
    <path d="M3 10.5 12 3l9 7.5"/>
    <path d="M5 9.5V20a1 1 0 0 0 1 1h4v-6h4v6h4a1 1 0 0 0 1-1V9.5"/>
  </symbol>

  <symbol id="icon-exchange" viewBox="0 0 24 24" fill="none" stroke="currentColor" stroke-width="1.6" stroke-linecap="round" stroke-linejoin="round">
    <path d="M4 7h13l-3-3"/>
    <path d="M20 17H7l3 3"/>
  </symbol>

  <symbol id="icon-credit-card" viewBox="0 0 24 24" fill="none" stroke="currentColor" stroke-width="1.6" stroke-linecap="round" stroke-linejoin="round">
    <rect x="2" y="5" width="20" height="14" rx="2"/>
    <line x1="2" y1="10" x2="22" y2="10"/>
  </symbol>

  <symbol id="icon-bar-chart" viewBox="0 0 24 24" fill="none" stroke="currentColor" stroke-width="1.6" stroke-linecap="round" stroke-linejoin="round">
    <line x1="5" y1="20" x2="5" y2="12"/>
    <line x1="12" y1="20" x2="12" y2="4"/>
    <line x1="19" y1="20" x2="19" y2="15"/>
  </symbol>

  <symbol id="icon-target" viewBox="0 0 24 24" fill="none" stroke="currentColor" stroke-width="1.6" stroke-linecap="round" stroke-linejoin="round">
    <circle cx="12" cy="12" r="9"/>
    <circle cx="12" cy="12" r="5"/>
    <circle cx="12" cy="12" r="1"/>
  </symbol>

  <symbol id="icon-user" viewBox="0 0 24 24" fill="none" stroke="currentColor" stroke-width="1.6" stroke-linecap="round" stroke-linejoin="round">
    <circle cx="12" cy="8" r="4"/>
    <path d="M4 21v-1a6 6 0 0 1 6-6h4a6 6 0 0 1 6 6v1"/>
  </symbol>

  <symbol id="icon-log-out" viewBox="0 0 24 24" fill="none" stroke="currentColor" stroke-width="1.6" stroke-linecap="round" stroke-linejoin="round">
    <path d="M9 21H6a2 2 0 0 1-2-2V5a2 2 0 0 1 2-2h3"/>
    <path d="M15 16l5-4-5-4"/>
    <line x1="20" y1="12" x2="9" y2="12"/>
  </symbol>

  <symbol id="icon-clock" viewBox="0 0 24 24" fill="none" stroke="currentColor" stroke-width="1.6" stroke-linecap="round" stroke-linejoin="round">
    <circle cx="12" cy="12" r="9"/>
    <path d="M12 7v5l3.5 2"/>
  </symbol>

  <symbol id="icon-cart" viewBox="0 0 24 24" fill="none" stroke="currentColor" stroke-width="1.6" stroke-linecap="round" stroke-linejoin="round">
    <circle cx="9" cy="20" r="1"/>
    <circle cx="18" cy="20" r="1"/>
    <path d="M2 3h2l2.4 12.2a2 2 0 0 0 2 1.6h8.4a2 2 0 0 0 2-1.6L21 8H6"/>
  </symbol>

  <symbol id="icon-arrow-down-left" viewBox="0 0 24 24" fill="none" stroke="currentColor" stroke-width="1.6" stroke-linecap="round" stroke-linejoin="round">
    <path d="M20 17H10a3 3 0 0 1-3-3V4"/>
    <polyline points="11 21 7 17 11 13"/>
  </symbol>

  <symbol id="icon-bus" viewBox="0 0 24 24" fill="none" stroke="currentColor" stroke-width="1.6" stroke-linecap="round" stroke-linejoin="round">
    <rect x="4" y="4" width="16" height="13" rx="2"/>
    <line x1="4" y1="11" x2="20" y2="11"/>
    <circle cx="8" cy="20" r="1.5"/>
    <circle cx="16" cy="20" r="1.5"/>
  </symbol>

  <symbol id="icon-bell" viewBox="0 0 24 24" fill="none" stroke="currentColor" stroke-width="1.6" stroke-linecap="round" stroke-linejoin="round">
    <path d="M6 8a6 6 0 0 1 12 0c0 5 2 6 2 6H4s2-1 2-6"/>
    <path d="M10 21a2 2 0 0 0 4 0"/>
  </symbol>

  <symbol id="icon-plus-circle" viewBox="0 0 24 24" fill="none" stroke="currentColor" stroke-width="1.6" stroke-linecap="round" stroke-linejoin="round">
    <circle cx="12" cy="12" r="9"/>
    <line x1="12" y1="8" x2="12" y2="16"/>
    <line x1="8" y1="12" x2="16" y2="12"/>
  </symbol>

  <symbol id="icon-list" viewBox="0 0 24 24" fill="none" stroke="currentColor" stroke-width="1.6" stroke-linecap="round" stroke-linejoin="round">
    <line x1="9" y1="6" x2="20" y2="6"/>
    <line x1="9" y1="12" x2="20" y2="12"/>
    <line x1="9" y1="18" x2="20" y2="18"/>
    <line x1="4" y1="6" x2="4.01" y2="6"/>
    <line x1="4" y1="12" x2="4.01" y2="12"/>
    <line x1="4" y1="18" x2="4.01" y2="18"/>
  </symbol>

  <symbol id="icon-smartphone" viewBox="0 0 24 24" fill="none" stroke="currentColor" stroke-width="1.6" stroke-linecap="round" stroke-linejoin="round">
    <rect x="6" y="2" width="12" height="20" rx="2"/>
    <line x1="11" y1="18" x2="13" y2="18"/>
  </symbol>

  <symbol id="icon-laptop" viewBox="0 0 24 24" fill="none" stroke="currentColor" stroke-width="1.6" stroke-linecap="round" stroke-linejoin="round">
    <rect x="4" y="4" width="16" height="11" rx="1"/>
    <path d="M2 19h20l-1.5-3h-17z"/>
  </symbol>

  <symbol id="icon-car" viewBox="0 0 24 24" fill="none" stroke="currentColor" stroke-width="1.6" stroke-linecap="round" stroke-linejoin="round">
    <path d="M3 13l2-6a2 2 0 0 1 2-1h10a2 2 0 0 1 2 1l2 6"/>
    <rect x="2" y="13" width="20" height="5" rx="1.5"/>
    <circle cx="7" cy="18" r="1.5"/>
    <circle cx="17" cy="18" r="1.5"/>
  </symbol>

  <symbol id="icon-trending-up" viewBox="0 0 24 24" fill="none" stroke="currentColor" stroke-width="1.6" stroke-linecap="round" stroke-linejoin="round">
    <polyline points="4 15 10 9 14 13 20 6"/>
    <polyline points="14 6 20 6 20 12"/>
  </symbol>

  <symbol id="icon-lock" viewBox="0 0 24 24" fill="none" stroke="currentColor" stroke-width="1.6" stroke-linecap="round" stroke-linejoin="round">
    <rect x="5" y="11" width="14" height="10" rx="2"/>
    <path d="M8 11V7a4 4 0 0 1 8 0v4"/>
  </symbol>

  <symbol id="icon-mail" viewBox="0 0 24 24" fill="none" stroke="currentColor" stroke-width="1.6" stroke-linecap="round" stroke-linejoin="round">
    <rect x="3" y="5" width="18" height="14" rx="2"/>
    <path d="M3 7l9 6 9-6"/>
  </symbol>
</svg>
